<?xml version="1.0" encoding="UTF-8"?>
<svg width="45px" height="45px" viewBox="0 0 45 45" version="1.1" xmlns="http://www.w3.org/2000/svg" xmlns:xlink="http://www.w3.org/1999/xlink">
    <!-- Generator: Sketch 54.1 (76490) - https://sketchapp.com -->
    <title>facebook-app-logo (1)</title>
    <desc>Created with Sketch.</desc>
    <g id="Desktop-layouts" stroke="none" stroke-width="1" fill="none" fill-rule="evenodd">
        <g id="Desktop" transform="translate(-1067.000000, -2159.000000)" fill="#174BC1" fill-rule="nonzero">
            <g id="facebook-app-logo-(1)" transform="translate(1067.000000, 2159.000000)">
                <path d="M42.5148192,0 L2.48369887,0 C1.11292235,0 0,1.11069947 0,2.48369887 L0,42.5148192 C0,43.8878186 1.11292235,45 2.48369887,45 L24.0352697,45 L24.0352697,27.5733551 L18.17131,27.5733551 L18.17131,20.7809721 L24.0352697,20.7809721 L24.0352697,15.7720806 C24.0352697,9.9607291 27.5837285,6.79460581 32.7689686,6.79460581 C35.2548903,6.79460581 37.3866331,6.98058684 38.0082988,7.06135151 L38.0082988,13.1357439 L34.4116775,13.1372258 C31.5923237,13.1372258 31.0484588,14.477623 31.0484588,16.4433906 L31.0484588,20.7787493 L37.7748963,20.7787493 L36.8953764,27.5703912 L31.0477178,27.5703912 L31.0477178,44.9977771 L42.5140782,44.9977771 C43.8863367,44.9977771 45,43.8841138 45,42.5148192 L45,2.48221695 C44.999259,1.11069947 43.8870777,0 42.5148192,0 Z" id="Path"></path>
            </g>
        </g>
    </g>
</svg>